<?xml version="1.0" standalone="no"?>
<!DOCTYPE svg PUBLIC "-//W3C//DTD SVG 20010904//EN"
 "http://www.w3.org/TR/2001/REC-SVG-20010904/DTD/svg10.dtd">
<svg version="1.0" xmlns="http://www.w3.org/2000/svg"
 width="453.000000pt" height="122.000000pt" viewBox="0 0 453.000000 122.000000"
 preserveAspectRatio="xMidYMid meet">

<g transform="translate(0.000000,122.000000) scale(0.100000,-0.100000)"
fill="#000000" stroke="none">
<path d="M975 1179 c-95 -27 -276 -117 -356 -178 -127 -96 -276 -280 -323
-396 l-16 -40 23 30 c185 246 437 396 710 422 l68 6 -5 36 c-3 20 -8 60 -12
89 -3 28 -9 52 -12 51 -4 0 -38 -9 -77 -20z"  fill="#66b360"/>

<path d="M363 953 c-82 -96 -118 -150 -163 -246 -51 -109 -80 -222 -85 -332
-2 -49 -2 -79 1 -65 15 78 40 172 61 224 49 126 147 261 256 352 31 27 57 51
57 54 0 4 -15 24 -33 45 l-33 38 -61 -70z"  fill="#66b360"/>

<path d="M1017 991 c-156 -34 -315 -106 -432 -194 -61 -46 -63 -50 -20 -32 66
29 165 65 177 65 7 0 0 -12 -14 -27 -51 -55 -73 -112 -73 -193 0 -115 51 -197
152 -246 137 -67 303 -8 369 131 25 53 34 144 11 115 -55 -70 -173 -65 -212
10 -44 85 12 181 108 182 l42 0 -37 32 -37 32 67 -8 c90 -11 192 -43 273 -83
l66 -34 48 105 c26 57 46 106 43 109 -2 3 -40 14 -84 25 -118 31 -331 36 -447
11z"  fill="#66b360"/>

<path d="M1670 838 c-58 -39 -70 -119 -25 -168 9 -10 37 -28 63 -41 85 -43
102 -58 102 -89 0 -32 -31 -60 -67 -60 -32 0 -72 20 -78 41 -5 15 -10 16 -35
7 -35 -12 -34 -10 -15 -47 27 -54 119 -77 188 -47 45 19 68 48 74 94 8 62 -16
96 -97 137 -61 31 -100 65 -100 87 0 5 9 17 20 28 25 25 72 26 94 1 15 -16 22
-18 42 -9 31 14 30 29 -1 58 -38 35 -119 39 -165 8z"  fill="#66b360"/>

<path d="M2183 845 c-17 -7 -39 -27 -47 -44 -37 -71 -6 -131 95 -182 70 -35
94 -65 80 -101 -18 -48 -89 -53 -130 -10 -22 24 -30 27 -49 19 -61 -27 23
-107 114 -107 82 0 137 54 136 133 -1 48 -33 86 -95 113 -68 29 -97 53 -97 79
0 52 65 73 111 36 19 -15 28 -17 44 -9 28 15 28 14 15 38 -24 45 -114 63 -177
35z"  fill="#66b360"/>

<path d="M2596 845 c-21 -7 -54 -28 -73 -47 -98 -93 -96 -233 6 -319 72 -63
161 -75 246 -35 148 68 180 236 66 346 -68 67 -157 87 -245 55z m172 -72 c51
-38 67 -70 67 -133 0 -97 -58 -155 -155 -155 -66 0 -99 18 -137 75 -52 76 -13
191 77 229 37 16 117 7 148 -16z"  fill="#66b360"/>

<path d="M1970 635 l0 -215 30 0 30 0 0 215 0 215 -30 0 -30 0 0 -215z"  fill="#66b360"/>

<path d="M2990 634 l0 -216 106 4 c105 3 106 3 135 36 24 26 29 41 29 81 0 42 -5 54 -30 77 -29 28 -29 29 -11 49 43 47 32 133 -22 165 -25 16 -50 20 -119 20 l-88 0 0 -216z m185 -49 c14 -13 25 -31 25 -40 0 -9 -11 -27 -25 -40 -18 -19 -35 -25 -70 -25 l-45 0 0 65 0 65 45 0 c35 0 52 -6 70 -25z m0 180 c14 -13 25 -31 25 -40 0 -9 -11 -27 -25 -40 -18 -19 -35 -25 -70 -25 l-45 0 0 65 0 65 45 0 c35 0 52 -6 70 -25z" fill="#66b360"/>

<path d="M3340 635 l0 -215 120 0 120 0 0 30 0 30 -85 0 -85 0 0 70 0 70 85 0
85 0 0 30 0 30 -85 0 -85 0 0 55 0 55 85 0 85 0 0 30 0 30 -120 0 -120 0 0
-215z"  fill="#66b360"/>

<path d="M3660 635 l0 -215 120 0 120 0 0 30 0 30 -85 0 -85 0 0 70 0 70 85 0
85 0 0 30 0 30 -85 0 -85 0 0 55 0 55 85 0 85 0 0 30 0 30 -120 0 -120 0 0
-215z"  fill="#66b360"/>

<path d="M4037 830 c-3 -8 -24 -94 -47 -190 -22 -96 -43 -186 -47 -198 -5 -22
-3 -23 28 -20 l33 3 25 118 c14 64 28 117 31 117 3 0 32 -52 65 -115 33 -63
62 -115 65 -115 3 0 36 55 73 123 38 69 67 113 67 100 0 -19 31 -165 46 -215
4 -12 15 -18 35 -18 16 0 29 3 29 6 0 14 -93 390 -99 401 -3 7 -39 -56 -78
-140 l-72 -151 -74 154 c-44 91 -77 149 -80 140z"  fill="#66b360"/>

<path d="M1541 748 c-124 -255 -317 -430 -561 -510 -81 -26 -115 -31 -226 -36
-182 -6 -292 15 -457 90 -37 17 -69 29 -71 27 -16 -19 -83 -145 -80 -151 8
-13 176 -68 261 -84 117 -23 311 -23 417 0 277 61 509 232 652 483 45 79 108
228 102 243 -2 4 -18 -24 -37 -62z"  fill="#455560"/>
</g>

<text xmlns="http://www.w3.org/2000/svg" x="175" y="105" style="font-family: Verdana;font-size:1.1rem; font-weight: 500;" fill="white">SIMULATOR SOCIAL BEHAVIOR</text>
</svg>
